<svg width="35" height="35" viewBox="0 0 35 35" fill="none" xmlns="http://www.w3.org/2000/svg">
<path fill-rule="evenodd" clip-rule="evenodd" d="M17.5002 23.3337C19.111 23.3337 20.4168 24.6395 20.4168 26.2503C20.4168 27.8612 19.111 29.167 17.5002 29.167C15.8893 29.167 14.5835 27.8612 14.5835 26.2503C14.5835 25.4768 14.8908 24.7349 15.4378 24.1879C15.9847 23.6409 16.7266 23.3337 17.5002 23.3337Z" stroke="#707070" stroke-width="1.5" stroke-linecap="round" stroke-linejoin="round"/>
<path fill-rule="evenodd" clip-rule="evenodd" d="M17.5002 14.5837C19.111 14.5837 20.4168 15.8895 20.4168 17.5003C20.4168 19.1112 19.111 20.417 17.5002 20.417C15.8893 20.417 14.5835 19.1112 14.5835 17.5003C14.5835 15.8895 15.8893 14.5837 17.5002 14.5837Z" stroke="#707070" stroke-width="1.5" stroke-linecap="round" stroke-linejoin="round"/>
<path fill-rule="evenodd" clip-rule="evenodd" d="M17.5002 5.83366C19.111 5.83366 20.4168 7.1395 20.4168 8.75033C20.4168 10.3612 19.111 11.667 17.5002 11.667C15.8893 11.667 14.5835 10.3612 14.5835 8.75033C14.5835 7.1395 15.8893 5.83366 17.5002 5.83366Z" stroke="#707070" stroke-width="1.5" stroke-linecap="round" stroke-linejoin="round"/>
</svg>
